<?xml version="1.0" encoding="utf-8"?>
<!-- Generator: Adobe Illustrator 17.0.0, SVG Export Plug-In . SVG Version: 6.00 Build 0)  -->
<!DOCTYPE svg PUBLIC "-//W3C//DTD SVG 1.1//EN" "http://www.w3.org/Graphics/SVG/1.1/DTD/svg11.dtd">
<svg version="1.1" id="图层_1" xmlns="http://www.w3.org/2000/svg" xmlns:xlink="http://www.w3.org/1999/xlink" x="0px" y="0px"
	 width="10px" height="10px" viewBox="0 0 10 10" enable-background="new 0 0 10 10" xml:space="preserve">
<g>
	<path fill="#999999" d="M6.694,9.792h-3.39c-1.707,0-3.096-1.389-3.096-3.096V3.305c0-1.707,1.389-3.096,3.096-3.096h1.695
		c0.252,0,0.456,0.204,0.456,0.456S5.251,1.121,4.999,1.121H3.305c-1.204,0-2.184,0.98-2.184,2.184v3.391
		c0,1.204,0.98,2.184,2.184,2.184h3.391c1.204,0,2.184-0.98,2.184-2.184V5.001c0-0.252,0.204-0.456,0.456-0.456
		c0.252,0,0.456,0.204,0.456,0.456v1.695C9.792,8.403,8.403,9.792,6.694,9.792z"/>
	<path fill="#999999" d="M5.343,5.068c-0.088,0-0.175-0.034-0.242-0.1c-0.133-0.133-0.133-0.35,0-0.484l2.906-2.906L6.5,1.569
		C6.312,1.568,6.16,1.415,6.16,1.226c0-0.001,0-0.001,0-0.001c0.001-0.188,0.154-0.34,0.342-0.34c0.001,0,0.001,0,0.001,0
		L8.83,0.897H8.83l0,0c0.001,0,0.001,0,0.001,0l0,0c0.084,0.001,0.16,0.032,0.22,0.083l0,0l0,0c0.018,0.015,0.034,0.033,0.048,0.052
		c0.039,0.051,0.064,0.112,0.069,0.18c0.001,0.01,0.001,0.019,0.001,0.029l0.005,2.166c0,0.189-0.152,0.343-0.341,0.343
		c0,0,0,0-0.001,0C8.643,3.75,8.49,3.597,8.49,3.41L8.487,2.064L5.584,4.967C5.517,5.035,5.43,5.068,5.343,5.068z"/>
</g>
</svg>
